<svg width="206" height="44" viewBox="0 0 206 44" fill="none" xmlns="http://www.w3.org/2000/svg">
<path d="M2.30968 34.7408L2.21655 9.69922L6.58317 9.68298L6.67631 34.7245L2.30968 34.7408ZM8.85962 34.7164L8.76649 9.67486L13.1331 9.65862L13.2262 34.7002L8.85962 34.7164ZM15.4095 34.692L15.3164 9.6505L17.4997 9.64238L17.5929 34.6839L15.4095 34.692ZM21.9595 34.6677L21.8664 9.62614L26.233 9.6099L26.3261 34.6514L21.9595 34.6677ZM28.5094 34.6433L28.4163 9.60178L34.9662 9.57742L35.0593 34.619L28.5094 34.6433ZM37.2427 34.6108L37.1495 9.5693L39.3328 9.56118L39.426 34.6027L37.2427 34.6108ZM43.7926 34.5865L43.6995 9.54494L50.2494 9.52058L50.3425 34.5621L43.7926 34.5865Z" fill="#434343"/>
<path d="M52.5257 34.5533L52.4326 9.51172L56.7992 9.49548L56.8924 34.537L52.5257 34.5533ZM59.0757 34.5289L58.9826 9.48736L63.3492 9.47112L63.4423 34.5127L59.0757 34.5289ZM65.6256 34.5045L65.5325 9.463L67.7158 9.45488L67.8089 34.4964L65.6256 34.5045ZM72.1755 34.4802L72.0824 9.43864L76.449 9.4224L76.5422 34.4639L72.1755 34.4802ZM78.7255 34.4558L78.6324 9.41428L85.1823 9.38992L85.2754 34.4315L78.7255 34.4558ZM87.4587 34.4233L87.3656 9.3818L89.5489 9.37368L89.642 34.4152L87.4587 34.4233ZM94.0087 34.399L93.9155 9.35744L100.465 9.33308L100.559 34.3746L94.0087 34.399Z" fill="#434343"/>
<path d="M102.743 34.3687L102.649 9.32715L107.016 9.31091L107.109 34.3525L102.743 34.3687ZM109.292 34.3443L109.199 9.30279L113.566 9.28655L113.659 34.3281L109.292 34.3443ZM115.842 34.32L115.749 9.27843L117.933 9.27031L118.026 34.3119L115.842 34.32ZM122.392 34.2956L122.299 9.25407L126.666 9.23783L126.759 34.2794L122.392 34.2956ZM128.942 34.2713L128.849 9.22971L135.399 9.20535L135.492 34.2469L128.942 34.2713ZM137.676 34.2388L137.582 9.19723L139.766 9.18911L139.859 34.2307L137.676 34.2388ZM144.225 34.2144L144.132 9.17287L150.682 9.14851L150.775 34.1901L144.225 34.2144Z" fill="#434343"/>
<path d="M155.141 34.1724L155.048 9.13086L159.415 9.11462L159.508 34.1562L155.141 34.1724ZM161.691 34.148L161.598 9.1065L165.965 9.09026L166.058 34.1318L161.691 34.148ZM168.241 34.1237L168.148 9.08214L170.332 9.07402L170.425 34.1156L168.241 34.1237ZM174.791 34.0993L174.698 9.05778L179.065 9.04154L179.158 34.0831L174.791 34.0993ZM181.341 34.075L181.248 9.03342L187.798 9.00906L187.891 34.0506L181.341 34.075ZM190.074 34.0425L189.981 9.00094L192.165 8.99282L192.258 34.0344L190.074 34.0425ZM196.624 34.0181L196.531 8.97658L203.081 8.95222L203.174 33.9938L196.624 34.0181Z" fill="#434343"/>
</svg>
