<svg width="59" height="232" viewBox="0 0 59 232" fill="none" xmlns="http://www.w3.org/2000/svg">
<path d="M46.7084 228.625H12.2917V223.709H46.7084V228.625ZM46.7084 221.25H12.2917V216.334H46.7084V221.25ZM46.7084 213.875H12.2917V211.417H46.7084V213.875ZM46.7084 206.5H12.2917V201.584H46.7084V206.5ZM46.7084 199.125H12.2917L12.2917 191.75H46.7084V199.125ZM46.7084 189.292H12.2917V186.834H46.7084V189.292ZM46.7084 181.917H12.2917V174.542H46.7084V181.917Z" fill="#434343"/>
<path d="M46.7084 172.084H12.2917V167.167H46.7084V172.084ZM46.7084 164.709H12.2917V159.792H46.7084V164.709ZM46.7084 157.334H12.2917V154.876H46.7084V157.334ZM46.7084 149.959H12.2917V145.042H46.7084V149.959ZM46.7084 142.584H12.2917L12.2917 135.209H46.7084V142.584ZM46.7084 132.751H12.2917V130.292H46.7084V132.751ZM46.7084 125.376H12.2917V118.001H46.7084V125.376Z" fill="#434343"/>
<path d="M46.7084 115.542H12.2917V110.625H46.7084V115.542ZM46.7084 108.167H12.2917V103.25H46.7084V108.167ZM46.7084 100.792H12.2917V98.3337H46.7084V100.792ZM46.7084 93.417H12.2917V88.5003H46.7084V93.417ZM46.7084 86.042H12.2917L12.2917 78.667H46.7084V86.042ZM46.7084 76.2087H12.2917V73.7503H46.7084V76.2087ZM46.7084 68.8337H12.2917V61.4587H46.7084V68.8337Z" fill="#434343"/>
<path d="M46.7084 56.5415H12.2917V51.6248H46.7084V56.5415ZM46.7084 49.1665H12.2917V44.2498H46.7084V49.1665ZM46.7084 41.7915H12.2917V39.3332H46.7084V41.7915ZM46.7084 34.4165H12.2917V29.4998H46.7084V34.4165ZM46.7084 27.0415H12.2917L12.2917 19.6665H46.7084V27.0415ZM46.7084 17.2082H12.2917V14.7498H46.7084V17.2082ZM46.7084 9.83317H12.2917V2.45817H46.7084V9.83317Z" fill="#434343"/>
</svg>
