<svg width="95" height="25" viewBox="0 0 95 25" fill="none" xmlns="http://www.w3.org/2000/svg">
<path d="M1.07062 19.3456L1.01855 5.3457L3.01854 5.33827L3.07061 19.3382L1.07062 19.3456ZM4.0706 19.3344L4.01853 5.33455L6.01852 5.32711L6.07059 19.327L4.0706 19.3344ZM7.07058 19.3233L7.01851 5.32339L8.01851 5.31967L8.07057 19.3196L7.07058 19.3233ZM10.0706 19.3121L10.0185 5.31223L12.0185 5.30479L12.0705 19.3047L10.0706 19.3121ZM13.0705 19.301L13.0185 5.30107L16.0185 5.28992L16.0705 19.2898L13.0705 19.301ZM17.0705 19.2861L17.0184 5.2862L18.0184 5.28248L18.0705 19.2824L17.0705 19.2861ZM20.0705 19.2749L20.0184 5.27504L23.0184 5.26388L23.0705 19.2638L20.0705 19.2749Z" fill="#434343"/>
<path d="M24.0704 19.2597L24.0183 5.25977L26.0183 5.25233L26.0704 19.2522L24.0704 19.2597ZM27.0704 19.2485L27.0183 5.24861L29.0183 5.24117L29.0703 19.2411L27.0704 19.2485ZM30.0703 19.2374L30.0183 5.23745L31.0183 5.23373L31.0703 19.2336L30.0703 19.2374ZM33.0703 19.2262L33.0182 5.22629L35.0182 5.21886L35.0703 19.2188L33.0703 19.2262ZM36.0703 19.215L36.0182 5.21514L39.0182 5.20398L39.0703 19.2039L36.0703 19.215ZM40.0703 19.2002L40.0182 5.20026L41.0182 5.19654L41.0703 19.1964L40.0703 19.2002ZM43.0702 19.189L43.0182 5.1891L46.0182 5.17795L46.0702 19.1779L43.0702 19.189Z" fill="#434343"/>
<path d="M47.0704 19.1747L47.0183 5.1748L49.0183 5.16737L49.0704 19.1673L47.0704 19.1747ZM50.0704 19.1636L50.0183 5.16365L52.0183 5.15621L52.0703 19.1561L50.0704 19.1636ZM53.0703 19.1524L53.0183 5.15249L54.0183 5.14877L54.0703 19.1487L53.0703 19.1524ZM56.0703 19.1412L56.0182 5.14133L58.0182 5.1339L58.0703 19.1338L56.0703 19.1412ZM59.0703 19.1301L59.0182 5.13018L62.0182 5.11902L62.0703 19.1189L59.0703 19.1301ZM63.0703 19.1152L63.0182 5.1153L64.0182 5.11158L64.0703 19.1115L63.0703 19.1152ZM66.0702 19.104L66.0182 5.10414L69.0182 5.09299L69.0702 19.0929L66.0702 19.104Z" fill="#434343"/>
<path d="M71.0701 19.0849L71.0181 5.08496L73.0181 5.07752L73.0701 19.0774L71.0701 19.0849ZM74.0701 19.0737L74.018 5.0738L76.018 5.06637L76.0701 19.0663L74.0701 19.0737ZM77.0701 19.0626L77.018 5.06265L78.018 5.05893L78.0701 19.0588L77.0701 19.0626ZM80.0701 19.0514L80.018 5.05149L82.018 5.04405L82.0701 19.044L80.0701 19.0514ZM83.07 19.0402L83.018 5.04033L86.018 5.02918L86.07 19.0291L83.07 19.0402ZM87.07 19.0254L87.018 5.02546L88.0179 5.02174L88.07 19.0216L87.07 19.0254ZM90.07 19.0142L90.0179 5.0143L93.0179 5.00314L93.07 19.003L90.07 19.0142Z" fill="#434343"/>
</svg>
