<svg width="134" height="35" viewBox="0 0 134 35" fill="none" xmlns="http://www.w3.org/2000/svg">
<path d="M1.51766 27.4252L1.44385 7.5791L4.279 7.56856L4.35281 27.4146L1.51766 27.4252ZM5.77038 27.4094L5.69658 7.56329L8.53173 7.55274L8.60554 27.3988L5.77038 27.4094ZM10.0231 27.3935L9.9493 7.54747L11.3669 7.5422L11.4407 27.3883L10.0231 27.3935ZM14.2758 27.3777L14.202 7.53165L17.0372 7.52111L17.111 27.3672L14.2758 27.3777ZM18.5286 27.3619L18.4548 7.51584L22.7075 7.50002L22.7813 27.3461L18.5286 27.3619ZM24.1989 27.3408L24.1251 7.49475L25.5426 7.48948L25.6164 27.3355L24.1989 27.3408ZM28.4516 27.325L28.3778 7.47893L32.6305 7.46312L32.7043 27.3092L28.4516 27.325Z" fill="#434343"/>
<path d="M34.1219 27.3031L34.0481 7.45703L36.8832 7.44649L36.9571 27.2926L34.1219 27.3031ZM38.3746 27.2873L38.3008 7.44122L41.136 7.43067L41.2098 27.2767L38.3746 27.2873ZM42.6274 27.2715L42.5536 7.4254L43.9711 7.42013L44.0449 27.2662L42.6274 27.2715ZM46.8801 27.2556L46.8063 7.40958L49.6414 7.39904L49.7152 27.2451L46.8801 27.2556ZM51.1328 27.2398L51.059 7.39377L55.3117 7.37795L55.3855 27.224L51.1328 27.2398ZM56.8031 27.2187L56.7293 7.37268L58.1469 7.36741L58.2207 27.2135L56.8031 27.2187ZM61.0559 27.2029L60.982 7.35686L65.2348 7.34105L65.3086 27.1871L61.0559 27.2029Z" fill="#434343"/>
<path d="M66.7262 27.183L66.6523 7.33691L69.4875 7.32637L69.5613 27.1724L66.7262 27.183ZM70.9789 27.1672L70.9051 7.3211L73.7402 7.31055L73.814 27.1566L70.9789 27.1672ZM75.2316 27.1513L75.1578 7.30528L76.5754 7.30001L76.6492 27.1461L75.2316 27.1513ZM79.4843 27.1355L79.4105 7.28947L82.2457 7.27892L82.3195 27.125L79.4843 27.1355ZM83.7371 27.1197L83.6633 7.27365L87.916 7.25783L87.9898 27.1039L83.7371 27.1197ZM89.4074 27.0986L89.3336 7.25256L90.7511 7.24729L90.8249 27.0934L89.4074 27.0986ZM93.6601 27.0828L93.5863 7.23675L97.839 7.22093L97.9128 27.067L93.6601 27.0828Z" fill="#434343"/>
<path d="M100.748 27.055L100.674 7.20898L103.509 7.19844L103.583 27.0445L100.748 27.055ZM105.001 27.0392L104.927 7.19317L107.762 7.18262L107.836 27.0287L105.001 27.0392ZM109.253 27.0234L109.18 7.17735L110.597 7.17208L110.671 27.0181L109.253 27.0234ZM113.506 27.0076L113.432 7.16154L116.267 7.15099L116.341 26.9971L113.506 27.0076ZM117.759 26.9918L117.685 7.14572L121.938 7.1299L122.012 26.976L117.759 26.9918ZM123.429 26.9707L123.355 7.12463L124.773 7.11936L124.847 26.9654L123.429 26.9707ZM127.682 26.9549L127.608 7.10882L131.861 7.093L131.935 26.9391L127.682 26.9549Z" fill="#434343"/>
</svg>
