<svg width="48" height="185" viewBox="0 0 48 185" fill="none" xmlns="http://www.w3.org/2000/svg">
<path d="M37.3935 183.032H9.84039V179.096H37.3935V183.032ZM37.3935 177.127H9.84039V173.191H37.3935V177.127ZM37.3935 171.223H9.84039V169.255H37.3935V171.223ZM37.3935 165.319H9.84039V161.383H37.3935V165.319ZM37.3935 159.415H9.84039V153.511H37.3935V159.415ZM37.3935 151.542H9.84039L9.84039 149.574H37.3935V151.542ZM37.3935 145.638H9.84039V139.734H37.3935V145.638Z" fill="#434343"/>
<path d="M37.3935 137.766H9.84039V133.83H37.3935V137.766ZM37.3935 131.862H9.84039V127.926H37.3935V131.862ZM37.3935 125.958H9.84039V123.99H37.3935V125.958ZM37.3935 120.053H9.84039V116.117H37.3935V120.053ZM37.3935 114.149H9.84039V108.245H37.3935V114.149ZM37.3935 106.277H9.84039L9.84039 104.309H37.3935V106.277ZM37.3935 100.373H9.84039V94.4684H37.3935V100.373Z" fill="#434343"/>
<path d="M37.3935 92.5H9.84039V88.5638H37.3935V92.5ZM37.3935 86.5958H9.84039V82.6596H37.3935V86.5958ZM37.3935 80.6915H9.84039V78.7234H37.3935V80.6915ZM37.3935 74.7873H9.84039V70.8511H37.3935V74.7873ZM37.3935 68.883H9.84039V62.9788H37.3935V68.883ZM37.3935 61.0107H9.84039L9.84039 59.0426H37.3935V61.0107ZM37.3935 55.1065H9.84039V49.2022H37.3935V55.1065Z" fill="#434343"/>
<path d="M37.3935 45.2656H9.84039V41.3295H37.3935V45.2656ZM37.3935 39.3614H9.84039V35.4252H37.3935V39.3614ZM37.3935 33.4571H9.84039V31.4891H37.3935V33.4571ZM37.3935 27.5529H9.84039V23.6167H37.3935V27.5529ZM37.3935 21.6487H9.84039V15.7444H37.3935V21.6487ZM37.3935 13.7763H9.84039L9.84039 11.8083H37.3935V13.7763ZM37.3935 7.87211H9.84039V1.96787H37.3935V7.87211Z" fill="#434343"/>
</svg>
