<svg width="40" height="157" viewBox="0 0 40 157" fill="none" xmlns="http://www.w3.org/2000/svg">
<path d="M31.6667 155H8.33337V151.667H31.6667V155ZM31.6667 150H8.33337V146.667H31.6667V150ZM31.6667 145H8.33337V143.334H31.6667V145ZM31.6667 140H8.33337V136.667H31.6667V140ZM31.6667 135H8.33337V130H31.6667V135ZM31.6667 128.334H8.33337V126.667H31.6667V128.334ZM31.6667 123.334H8.33337L8.33337 118.334H31.6667V123.334Z" fill="#434343"/>
<path d="M31.6667 116.667H8.33337V113.334H31.6667V116.667ZM31.6667 111.667H8.33337V108.334H31.6667V111.667ZM31.6667 106.667H8.33337V105.001H31.6667V106.667ZM31.6667 101.667H8.33337V98.3341H31.6667V101.667ZM31.6667 96.6675H8.33337V91.6675H31.6667V96.6675ZM31.6667 90.0008H8.33337V88.3341H31.6667V90.0008ZM31.6667 85.0008H8.33337L8.33337 80.0008H31.6667V85.0008Z" fill="#434343"/>
<path d="M31.6667 78.3335H8.33337V75.0002H31.6667V78.3335ZM31.6667 73.3335H8.33337V70.0002H31.6667V73.3335ZM31.6667 68.3335H8.33337V66.6668H31.6667V68.3335ZM31.6667 63.3335H8.33337V60.0002H31.6667V63.3335ZM31.6667 58.3335H8.33337V53.3335H31.6667V58.3335ZM31.6667 51.6668H8.33337V50.0002H31.6667V51.6668ZM31.6667 46.6668H8.33337L8.33337 41.6668H31.6667V46.6668Z" fill="#434343"/>
<path d="M31.6667 38.3335H8.33337V35.0002H31.6667V38.3335ZM31.6667 33.3335H8.33337V30.0002H31.6667V33.3335ZM31.6667 28.3335H8.33337V26.6668H31.6667V28.3335ZM31.6667 23.3335H8.33337V20.0002H31.6667V23.3335ZM31.6667 18.3335H8.33337V13.3335H31.6667V18.3335ZM31.6667 11.6668H8.33337V10.0002H31.6667V11.6668ZM31.6667 6.66683H8.33337L8.33337 1.66683H31.6667V6.66683Z" fill="#434343"/>
</svg>
